<svg width="22" height="18" viewBox="0 0 22 18" fill="none" xmlns="http://www.w3.org/2000/svg">
<path d="M13 8C13 7.73478 13.1054 7.48043 13.2929 7.29289C13.4804 7.10536 13.7348 7 14 7C14.2652 7 14.5196 7.10536 14.7071 7.29289C14.8946 7.48043 15 7.73478 15 8V10C15 10.2652 14.8946 10.5196 14.7071 10.7071C14.5196 10.8946 14.2652 11 14 11C13.7348 11 13.4804 10.8946 13.2929 10.7071C13.1054 10.5196 13 10.2652 13 10V8Z" stroke="#002359" stroke-width="1.5"/>
<path d="M13.0139 14L13.7639 14.002V14H13.0139ZM13.0139 4H13.7639V3.998L13.0139 4ZM13.7579 16.005L13.7639 14.002L12.2639 13.998L12.2579 16.001L13.7579 16.005ZM14.0159 13.75C14.1569 13.75 14.2689 13.864 14.2689 14H15.7689C15.7689 13.032 14.9819 12.25 14.0159 12.25V13.75ZM14.0159 12.25C13.0499 12.25 12.2639 13.032 12.2639 14H13.7639C13.7639 13.864 13.8749 13.75 14.0159 13.75V12.25ZM8.99489 1.75H12.5049V0.250001H8.99489V1.75ZM12.0079 16.25H8.99489V17.75H12.0079V16.25ZM8.99489 16.25C7.08389 16.25 5.72489 16.248 4.69489 16.11C3.68489 15.975 3.10389 15.721 2.67889 15.297L1.61989 16.36C2.36989 17.108 3.32189 17.44 4.49589 17.598C5.64989 17.753 7.12589 17.751 8.99589 17.751L8.99489 16.25ZM8.99489 0.250001C7.12489 0.250001 5.64889 0.248001 4.49489 0.403001C3.32089 0.561001 2.36989 0.893001 1.61989 1.641L2.67989 2.703C3.10389 2.279 3.68589 2.025 4.69489 1.89C5.72489 1.752 7.08389 1.75 8.99489 1.75V0.250001ZM1.58689 7.909C1.97289 8.124 2.22989 8.533 2.22989 9H3.72989C3.72981 8.51052 3.59909 8.02994 3.35122 7.60786C3.10336 7.18578 2.74732 6.83751 2.31989 6.599L1.58689 7.909ZM1.75989 6.02C1.83789 4.164 2.09089 3.289 2.67989 2.703L1.61989 1.641C0.589889 2.669 0.339889 4.08 0.259889 5.958L1.75989 6.02ZM2.22989 9C2.22989 9.467 1.97289 9.876 1.58689 10.092L2.31889 11.402C2.74666 11.1635 3.10299 10.8152 3.35105 10.3929C3.5991 9.97061 3.72989 9.48975 3.72989 9H2.22989ZM0.260889 12.042C0.340889 13.918 0.590889 15.332 1.61989 16.359L2.67989 15.297C2.09089 14.711 1.83789 13.835 1.75989 11.979L0.260889 12.042ZM19.7699 9C19.7699 8.533 20.0269 8.124 20.4129 7.909L19.6809 6.599C19.2533 6.83738 18.897 7.1856 18.649 7.60768C18.4009 8.02977 18.2701 8.51042 18.2699 9H19.7699ZM21.7389 5.958C21.6589 4.082 21.4089 2.668 20.3799 1.641L19.3199 2.703C19.9079 3.289 20.1619 4.165 20.2399 6.021L21.7389 5.958ZM20.4129 10.092C20.2181 9.98381 20.0558 9.82552 19.9428 9.63352C19.8297 9.44153 19.77 9.22281 19.7699 9H18.2699C18.2699 10.034 18.8409 10.932 19.6809 11.401L20.4129 10.092ZM20.2399 11.979C20.1619 13.835 19.9089 14.711 19.3199 15.297L20.3799 16.359C21.4099 15.332 21.6599 13.919 21.7389 12.042L20.2399 11.979ZM19.6809 11.401C19.9649 11.56 20.1509 11.664 20.2759 11.743C20.3379 11.782 20.3659 11.803 20.3739 11.809C20.3879 11.821 20.3369 11.785 20.2889 11.699L21.5989 10.966C21.5297 10.846 21.4384 10.7401 21.3299 10.654C21.2492 10.5886 21.1644 10.5284 21.0759 10.474C20.9089 10.368 20.6799 10.241 20.4129 10.091L19.6809 11.401ZM21.7389 12.042C21.7459 11.871 21.7539 11.694 21.7479 11.546C21.7437 11.3436 21.6924 11.145 21.5979 10.966L20.2889 11.698C20.2389 11.608 20.2459 11.546 20.2489 11.612C20.2502 11.6387 20.2502 11.6833 20.2489 11.746L20.2399 11.979L21.7389 12.042ZM20.4129 7.909C20.6799 7.759 20.9089 7.632 21.0759 7.526C21.1636 7.47044 21.2484 7.41036 21.3299 7.346C21.438 7.25978 21.529 7.15393 21.5979 7.034L20.2889 6.302C20.3369 6.215 20.3879 6.179 20.3729 6.191C20.3419 6.21488 20.3095 6.23692 20.2759 6.257C20.1509 6.337 19.9659 6.44 19.6809 6.599L20.4129 7.909ZM20.2399 6.021L20.2489 6.253C20.2502 6.31567 20.2502 6.36033 20.2489 6.387C20.2459 6.453 20.2389 6.391 20.2889 6.301L21.5989 7.033C21.693 6.8539 21.744 6.6553 21.7479 6.453C21.7514 6.2876 21.7481 6.12213 21.7379 5.957L20.2399 6.021ZM1.58689 10.091C1.31989 10.241 1.09089 10.367 0.923889 10.473C0.835416 10.5274 0.750571 10.5876 0.669889 10.653C0.561734 10.7392 0.470811 10.8461 0.401889 10.966L1.71089 11.697C1.66289 11.784 1.61189 11.82 1.62589 11.808C1.63489 11.801 1.66189 11.781 1.72389 11.742C1.84889 11.662 2.03389 11.559 2.31889 11.4L1.58689 10.091ZM1.75989 11.978L1.75089 11.745C1.74939 11.7003 1.74939 11.6557 1.75089 11.611C1.75389 11.545 1.76089 11.607 1.71089 11.697L0.400889 10.965C0.306764 11.1441 0.255743 11.3427 0.251889 11.545C0.245889 11.693 0.253889 11.87 0.261889 12.041L1.75989 11.978ZM2.31889 6.598C2.03489 6.439 1.84889 6.335 1.72389 6.256C1.68995 6.23595 1.65723 6.21391 1.62589 6.19C1.61189 6.178 1.66289 6.214 1.71089 6.3L0.400889 7.033C0.484889 7.181 0.595889 7.283 0.669889 7.345C0.749889 7.411 0.838889 7.471 0.923889 7.525C1.09089 7.631 1.31989 7.758 1.58689 7.908L2.31889 6.598ZM0.259889 5.958C0.252889 6.129 0.244889 6.306 0.250889 6.454C0.257889 6.604 0.280889 6.821 0.400889 7.034L1.71089 6.302C1.76089 6.392 1.75289 6.454 1.74989 6.388C1.74839 6.34335 1.74839 6.29866 1.74989 6.254L1.75889 6.021L0.259889 5.958ZM13.7629 3.998L13.7549 1.496L12.2559 1.501L12.2629 4.002L13.7629 3.998ZM14.0149 4.25C13.9819 4.25027 13.9492 4.24399 13.9186 4.23155C13.888 4.2191 13.8602 4.20073 13.8368 4.17749C13.8134 4.15425 13.7948 4.1266 13.7821 4.09614C13.7694 4.06567 13.7629 4.033 13.7629 4H12.2629C12.2629 4.968 13.0489 5.75 14.0149 5.75V4.25ZM14.2699 4C14.2699 4.136 14.1579 4.25 14.0169 4.25V5.75C14.9829 5.75 15.7699 4.968 15.7699 4H14.2699ZM14.2699 1.516V4H15.7699V1.516H14.2699ZM15.5099 1.769C17.6979 1.825 18.6789 2.061 19.3219 2.703L20.3819 1.641C19.2689 0.531001 17.6949 0.325001 15.5479 0.269001L15.5099 1.769ZM15.7699 1.516C15.7699 1.656 15.6539 1.772 15.5099 1.769L15.5479 0.269001C15.3815 0.264865 15.216 0.294063 15.0612 0.354876C14.9063 0.415689 14.7651 0.506886 14.646 0.623095C14.5269 0.739304 14.4323 0.878175 14.3677 1.03152C14.3031 1.18487 14.2698 1.3496 14.2699 1.516H15.7699ZM12.5049 1.75C12.4388 1.74974 12.3764 1.72328 12.3298 1.67643C12.2831 1.62957 12.2569 1.56613 12.2569 1.5L13.7569 1.496C13.7558 1.16517 13.6237 0.848259 13.3894 0.614703C13.1551 0.381146 12.8377 0.25 12.5069 0.250001L12.5049 1.75ZM16.0649 17.714C17.9399 17.634 19.3539 17.384 20.3809 16.359L19.3199 15.297C18.7339 15.883 17.8569 16.137 16.0029 16.215L16.0649 17.714ZM14.2699 14V15.977H15.7699V14H14.2699ZM12.2589 16C12.2589 16.121 12.2589 16.214 12.2559 16.293C12.2539 16.373 12.2499 16.419 12.2459 16.448C12.2419 16.477 12.2409 16.467 12.2519 16.438C12.2713 16.3953 12.298 16.3564 12.3309 16.323L13.3899 17.385C13.5826 17.1858 13.703 16.9277 13.7319 16.652C13.7589 16.455 13.7569 16.219 13.7579 16.005L12.2589 16ZM12.0079 17.75C12.2219 17.75 12.4589 17.752 12.6559 17.725C12.8749 17.695 13.1539 17.62 13.3899 17.385L12.3299 16.323C12.364 16.2903 12.4036 16.2639 12.4469 16.245C12.4749 16.233 12.4849 16.235 12.4569 16.238C12.405 16.2434 12.353 16.2467 12.3009 16.248C12.2209 16.25 12.1279 16.25 12.0079 16.25V17.75ZM16.0029 16.215C15.8829 16.22 15.7899 16.224 15.7109 16.225C15.6319 16.226 15.5859 16.225 15.5589 16.222C15.5319 16.219 15.5439 16.217 15.5739 16.229C15.6109 16.243 15.6539 16.269 15.6929 16.305L14.6549 17.388C14.8989 17.622 15.1839 17.692 15.4119 17.714C15.6139 17.734 15.8509 17.723 16.0649 17.714L16.0029 16.215ZM14.2699 15.977C14.2699 16.195 14.2679 16.437 14.2959 16.64C14.3269 16.866 14.4079 17.151 14.6549 17.388L15.6929 16.305C15.7329 16.343 15.7589 16.386 15.7749 16.422C15.7869 16.452 15.7849 16.462 15.7819 16.434C15.7764 16.3812 15.7731 16.3281 15.7719 16.275C15.7699 16.195 15.7699 16.1 15.7699 15.977H14.2699Z" fill="#002359"/>
</svg>
