<svg width="25" height="25" viewBox="0 0 25 25" fill="none" xmlns="http://www.w3.org/2000/svg">
<path opacity="0.4" d="M23.3833 12.5528C23.3833 14.2768 23.3833 15.6427 23.2457 16.7222C23.104 17.8333 22.8065 18.739 22.1403 19.4862C21.9426 19.708 21.7252 19.9125 21.4907 20.0977C20.7073 20.7164 19.7649 20.9901 18.6027 21.1214C17.4641 21.25 16.0199 21.25 14.1808 21.25H11.0858C9.24675 21.25 7.80247 21.25 6.66388 21.1214C5.50172 20.9901 4.5593 20.7164 3.77593 20.0977C3.54141 19.9125 3.32398 19.7079 3.12628 19.4862C2.46011 18.739 2.16262 17.8333 2.02093 16.7222C1.88328 15.6427 1.88329 14.2767 1.8833 12.5527V12.4473C1.8833 11.8715 1.88329 11.3357 1.88842 10.8371C1.89125 10.5614 1.89267 10.4236 1.98034 10.3368C2.06802 10.25 2.20691 10.25 2.48469 10.25H22.7819C23.0597 10.25 23.1986 10.25 23.2863 10.3368C23.3739 10.4236 23.3754 10.5614 23.3782 10.8371C23.3833 11.3356 23.3833 11.8715 23.3833 12.4473V12.5528Z" fill="#8E8E8E"/>
<path d="M14.1818 3.75C16.0208 3.74999 17.465 3.74998 18.6036 3.8786C19.7658 4.00988 20.7082 4.28362 21.4916 4.90229C21.7261 5.08749 21.9435 5.29205 22.1412 5.5138C22.8074 6.26101 23.1049 7.16669 23.2466 8.27785C23.2629 8.4057 23.271 8.46963 23.2564 8.52579C23.2329 8.61553 23.1641 8.69375 23.078 8.72835C23.0242 8.75 22.9568 8.75 22.822 8.75H2.44644C2.31166 8.75 2.24427 8.75 2.19042 8.72835C2.10435 8.69375 2.03548 8.61554 2.01204 8.52579C1.99738 8.46963 2.00553 8.4057 2.02184 8.27785C2.16353 7.16669 2.46102 6.26101 3.12719 5.5138C3.32489 5.29205 3.54232 5.08749 3.77684 4.90229C4.56022 4.28362 5.50263 4.00988 6.66479 3.8786C7.80338 3.74998 9.24767 3.74999 11.0867 3.75H14.1818Z" fill="#8E8E8E"/>
<path fill-rule="evenodd" clip-rule="evenodd" d="M10.8833 16.5C10.8833 16.0858 11.2191 15.75 11.6333 15.75H13.1333C13.5475 15.75 13.8833 16.0858 13.8833 16.5C13.8833 16.9142 13.5475 17.25 13.1333 17.25H11.6333C11.2191 17.25 10.8833 16.9142 10.8833 16.5Z" fill="#8E8E8E"/>
<path fill-rule="evenodd" clip-rule="evenodd" d="M15.3833 16.5C15.3833 16.0858 15.7191 15.75 16.1333 15.75H19.6333C20.0475 15.75 20.3833 16.0858 20.3833 16.5C20.3833 16.9142 20.0475 17.25 19.6333 17.25H16.1333C15.7191 17.25 15.3833 16.9142 15.3833 16.5Z" fill="#8E8E8E"/>
</svg>
