<svg width="36" height="36" viewBox="0 0 36 36" fill="none" xmlns="http://www.w3.org/2000/svg">
<rect width="36" height="36" rx="18" fill="#D9E8FF"/>
<path fill-rule="evenodd" clip-rule="evenodd" d="M11.733 8.043C12.95 6.833 14.954 7.048 15.973 8.41L17.235 10.094C18.065 11.202 17.991 12.75 17.006 13.729L16.768 13.967C16.741 14.0669 16.7383 14.1718 16.76 14.273C16.823 14.681 17.164 15.545 18.592 16.965C20.02 18.385 20.89 18.725 21.304 18.789C21.4083 18.81 21.5161 18.8069 21.619 18.78L22.027 18.374C22.903 17.504 24.247 17.341 25.331 17.93L27.241 18.97C28.878 19.858 29.291 22.082 27.951 23.415L26.53 24.827C26.082 25.272 25.48 25.643 24.746 25.712C22.936 25.881 18.719 25.665 14.286 21.258C10.149 17.144 9.35503 13.556 9.25403 11.788C9.20403 10.894 9.62603 10.138 10.164 9.604L11.733 8.043ZM14.773 9.309C14.266 8.632 13.322 8.578 12.79 9.107L11.22 10.667C10.89 10.995 10.732 11.357 10.752 11.703C10.832 13.108 11.472 16.345 15.344 20.195C19.406 24.233 23.157 24.354 24.607 24.218C24.903 24.191 25.197 24.037 25.472 23.764L26.892 22.351C27.47 21.777 27.343 20.731 26.525 20.287L24.615 19.248C24.087 18.962 23.469 19.056 23.085 19.438L22.63 19.891L22.1 19.359C22.63 19.891 22.629 19.892 22.628 19.892L22.627 19.894L22.624 19.897L22.617 19.903L22.602 19.917C22.5598 19.9562 22.5143 19.9916 22.466 20.023C22.386 20.076 22.28 20.135 22.147 20.184C21.877 20.285 21.519 20.339 21.077 20.271C20.21 20.138 19.061 19.547 17.534 18.029C16.008 16.511 15.412 15.369 15.278 14.503C15.209 14.061 15.264 13.703 15.366 13.433C15.4222 13.2811 15.5025 13.1392 15.604 13.013L15.636 12.978L15.65 12.963L15.656 12.957L15.659 12.954L15.661 12.952L15.949 12.666C16.377 12.239 16.437 11.532 16.034 10.993L14.773 9.309Z" fill="#0065FF"/>
</svg>
