<svg width="50" height="50" viewBox="0 0 50 50" fill="none" xmlns="http://www.w3.org/2000/svg">
<rect width="50" height="50" rx="25" fill="white"/>
<path fill-rule="evenodd" clip-rule="evenodd" d="M31.1499 27.0385L31.8339 26.359C32.7789 25.42 34.2504 25.2265 35.4594 25.8835L38.3244 27.442C40.1649 28.4425 40.5714 30.895 39.1329 32.3245L37.0029 34.4425C36.4599 34.9825 35.7879 35.3755 35.0139 35.4475C33.2259 35.614 29.5464 35.524 25.2054 32.983L31.1499 27.0385ZM22.2849 18.2245L22.7154 17.7955C23.7759 16.7425 23.8764 15.0505 22.9509 13.8145L21.0609 11.29C19.9149 9.76 17.7024 9.5575 16.3899 10.8625L14.0349 13.2025C13.3854 13.8505 12.9504 14.6875 13.0029 15.6175C13.1004 17.3275 13.6824 20.4475 16.2264 24.2815L22.2849 18.2245Z" fill="#0065FF"/>
<path opacity="0.6" d="M25.0944 24.2455C20.6754 19.852 22.2744 18.2335 22.2849 18.223L16.2264 24.283C17.2269 25.789 18.5289 27.4045 20.2224 29.089C21.9324 30.79 23.6124 32.0515 25.2054 32.983L31.1499 27.04C31.1499 27.04 29.5269 28.654 25.0944 24.247" fill="#0065FF"/>
</svg>
