<svg width="15" height="16" viewBox="0 0 15 16" fill="none" xmlns="http://www.w3.org/2000/svg">
<path d="M8.83331 14.6667H6.16665C3.65265 14.6667 2.39531 14.6667 1.61465 13.8853C0.83398 13.104 0.833313 11.8473 0.833313 9.33332V7.99999C0.833313 5.48599 0.833313 4.22866 1.61465 3.44799C2.39598 2.66732 3.65265 2.66666 6.16665 2.66666H8.83331C11.3473 2.66666 12.6046 2.66666 13.3853 3.44799C14.166 4.22932 14.1666 5.48599 14.1666 7.99999V9.33332C14.1666 11.8473 14.1666 13.1047 13.3853 13.8853C12.95 14.3213 12.3666 14.514 11.5 14.5987M4.16665 2.66666V1.66666M10.8333 2.66666V1.66666M13.8333 5.99999H6.66665M0.833313 5.99999H3.41665" stroke="white" stroke-width="1.5" stroke-linecap="round"/>
<path d="M11.5 11.3333C11.5 11.5101 11.4298 11.6797 11.3047 11.8047C11.1797 11.9298 11.0101 12 10.8333 12C10.6565 12 10.487 11.9298 10.3619 11.8047C10.2369 11.6797 10.1667 11.5101 10.1667 11.3333C10.1667 11.1565 10.2369 10.987 10.3619 10.8619C10.487 10.7369 10.6565 10.6667 10.8333 10.6667C11.0101 10.6667 11.1797 10.7369 11.3047 10.8619C11.4298 10.987 11.5 11.1565 11.5 11.3333ZM11.5 8.66667C11.5 8.84348 11.4298 9.01305 11.3047 9.13807C11.1797 9.2631 11.0101 9.33333 10.8333 9.33333C10.6565 9.33333 10.487 9.2631 10.3619 9.13807C10.2369 9.01305 10.1667 8.84348 10.1667 8.66667C10.1667 8.48986 10.2369 8.32029 10.3619 8.19526C10.487 8.07024 10.6565 8 10.8333 8C11.0101 8 11.1797 8.07024 11.3047 8.19526C11.4298 8.32029 11.5 8.48986 11.5 8.66667ZM8.16667 11.3333C8.16667 11.5101 8.09643 11.6797 7.9714 11.8047C7.84638 11.9298 7.67681 12 7.5 12C7.32319 12 7.15362 11.9298 7.0286 11.8047C6.90357 11.6797 6.83333 11.5101 6.83333 11.3333C6.83333 11.1565 6.90357 10.987 7.0286 10.8619C7.15362 10.7369 7.32319 10.6667 7.5 10.6667C7.67681 10.6667 7.84638 10.7369 7.9714 10.8619C8.09643 10.987 8.16667 11.1565 8.16667 11.3333ZM8.16667 8.66667C8.16667 8.84348 8.09643 9.01305 7.9714 9.13807C7.84638 9.2631 7.67681 9.33333 7.5 9.33333C7.32319 9.33333 7.15362 9.2631 7.0286 9.13807C6.90357 9.01305 6.83333 8.84348 6.83333 8.66667C6.83333 8.48986 6.90357 8.32029 7.0286 8.19526C7.15362 8.07024 7.32319 8 7.5 8C7.67681 8 7.84638 8.07024 7.9714 8.19526C8.09643 8.32029 8.16667 8.48986 8.16667 8.66667ZM4.83333 11.3333C4.83333 11.5101 4.7631 11.6797 4.63807 11.8047C4.51305 11.9298 4.34348 12 4.16667 12C3.98986 12 3.82029 11.9298 3.69526 11.8047C3.57024 11.6797 3.5 11.5101 3.5 11.3333C3.5 11.1565 3.57024 10.987 3.69526 10.8619C3.82029 10.7369 3.98986 10.6667 4.16667 10.6667C4.34348 10.6667 4.51305 10.7369 4.63807 10.8619C4.7631 10.987 4.83333 11.1565 4.83333 11.3333ZM4.83333 8.66667C4.83333 8.84348 4.7631 9.01305 4.63807 9.13807C4.51305 9.2631 4.34348 9.33333 4.16667 9.33333C3.98986 9.33333 3.82029 9.2631 3.69526 9.13807C3.57024 9.01305 3.5 8.84348 3.5 8.66667C3.5 8.48986 3.57024 8.32029 3.69526 8.19526C3.82029 8.07024 3.98986 8 4.16667 8C4.34348 8 4.51305 8.07024 4.63807 8.19526C4.7631 8.32029 4.83333 8.48986 4.83333 8.66667Z" fill="white"/>
</svg>
