<svg width="64" height="64" viewBox="0 0 64 64" fill="none" xmlns="http://www.w3.org/2000/svg">
<rect width="64" height="64" rx="32" fill="#D9E8FF"/>
<path opacity="0.5" d="M42.5 35C41.61 35 40.74 34.7361 39.9999 34.2416C39.2599 33.7471 38.6831 33.0443 38.3425 32.2221C38.0019 31.3998 37.9128 30.495 38.0865 29.6221C38.2601 28.7492 38.6887 27.9474 39.318 27.318C39.9474 26.6887 40.7492 26.2601 41.6221 26.0865C42.495 25.9128 43.3998 26.0019 44.2221 26.3425C45.0443 26.6831 45.7471 27.2599 46.2416 27.9999C46.7361 28.74 47 29.61 47 30.5C46.9988 31.6931 46.5243 32.837 45.6807 33.6807C44.837 34.5243 43.6931 34.9988 42.5 35ZM26 36.5C23.6139 36.4972 21.3263 35.5481 19.6391 33.8609C17.9519 32.1737 17.0028 29.8861 17 27.5V18.5C17 18.1022 17.158 17.7206 17.4393 17.4393C17.7206 17.158 18.1022 17 18.5 17H21.5C21.8978 17 22.2794 17.158 22.5607 17.4393C22.842 17.7206 23 18.1022 23 18.5C23 18.8978 22.842 19.2794 22.5607 19.5607C22.2794 19.842 21.8978 20 21.5 20H20V27.5C20 29.0913 20.6321 30.6174 21.7574 31.7426C22.8826 32.8679 24.4087 33.5 26 33.5C27.5913 33.5 29.1174 32.8679 30.2426 31.7426C31.3679 30.6174 32 29.0913 32 27.5V20H30.5C30.1022 20 29.7206 19.842 29.4393 19.5607C29.158 19.2794 29 18.8978 29 18.5C29 18.1022 29.158 17.7206 29.4393 17.4393C29.7206 17.158 30.1022 17 30.5 17H33.5C33.8978 17 34.2794 17.158 34.5607 17.4393C34.842 17.7206 35 18.1022 35 18.5V27.5C34.9972 29.8861 34.0481 32.1737 32.3609 33.8609C30.6737 35.5481 28.3861 36.4972 26 36.5Z" fill="#0065FF"/>
<path d="M42.5 35C41.9879 34.994 41.4807 34.9007 41 34.724V37.25C41 39.0402 40.2888 40.7571 39.023 42.023C37.7571 43.2888 36.0402 44 34.25 44C32.4598 44 30.7429 43.2888 29.477 42.023C28.2112 40.7571 27.5 39.0402 27.5 37.25V36.365C26.5081 36.545 25.4919 36.545 24.5 36.365V37.25C24.5 39.8359 25.5272 42.3158 27.3557 44.1443C29.1842 45.9728 31.6641 47 34.25 47C36.8359 47 39.3158 45.9728 41.1443 44.1443C42.9728 42.3158 44 39.8359 44 37.25V34.724C43.5193 34.9007 43.0121 34.994 42.5 35Z" fill="#0065FF"/>
</svg>
