<svg width="64" height="64" viewBox="0 0 64 64" fill="none" xmlns="http://www.w3.org/2000/svg">
<rect width="64" height="64" rx="32" fill="#D9E8FF"/>
<path fill-rule="evenodd" clip-rule="evenodd" d="M22.115 19.481C23.2145 18.8285 24.5165 18.5 26 18.5C27.464 18.5 28.712 19.2395 29.573 19.7495C30.302 20.1845 31.118 20.75 32 20.75C32.882 20.75 33.698 20.183 34.427 19.7495C35.2895 19.241 36.5375 18.5 38 18.5C39.485 18.5 40.787 18.8285 41.885 19.481C42.983 20.1335 43.7945 21.062 44.369 22.133C45.494 24.227 45.749 26.921 45.5945 29.543C45.437 32.2055 44.8445 34.9895 44.093 37.4105C43.346 39.812 42.407 41.9675 41.498 43.3325C40.454 44.897 39.0035 45.6755 37.466 45.4595C36.0545 45.2615 34.958 44.27 34.409 43.1705C33.8225 41.9975 33.551 40.688 33.0365 39.4835C32.7805 38.8905 32.538 38.468 32.309 38.216C32.069 37.952 31.9235 37.9595 31.6925 38.216C31.4625 38.468 31.2195 38.8905 30.9635 39.4835C30.449 40.688 30.179 41.9975 29.5925 43.1705C29.042 44.27 27.9455 45.2615 26.5355 45.4595C24.9965 45.6755 23.546 44.897 22.502 43.3325C21.593 41.9675 20.654 39.812 19.907 37.4105C19.1555 34.9895 18.563 32.2055 18.407 29.5445C18.251 26.9195 18.506 24.227 19.631 22.133C20.2055 21.062 21.017 20.1335 22.115 19.481Z" fill="#0065FF"/>
</svg>
