<svg width="36" height="36" viewBox="0 0 36 36" fill="none" xmlns="http://www.w3.org/2000/svg">
<rect width="36" height="36" rx="18" fill="#D9E8FF"/>
<path d="M17.6 19.5C19.806 19.5 21.6 17.706 21.6 15.5C21.6 13.294 19.806 11.5 17.6 11.5C15.394 11.5 13.6 13.294 13.6 15.5C13.6 17.706 15.394 19.5 17.6 19.5ZM17.6 13.5C18.703 13.5 19.6 14.397 19.6 15.5C19.6 16.603 18.703 17.5 17.6 17.5C16.497 17.5 15.6 16.603 15.6 15.5C15.6 14.397 16.497 13.5 17.6 13.5Z" fill="#0065FF"/>
<path d="M17.0199 27.314C17.1893 27.4346 17.392 27.4994 17.5999 27.4994C17.8078 27.4994 18.0106 27.4346 18.1799 27.314C18.4839 27.099 25.6289 21.94 25.5999 15.5C25.5999 11.089 22.0109 7.5 17.5999 7.5C13.1889 7.5 9.59994 11.089 9.59994 15.495C9.57094 21.94 16.7159 27.099 17.0199 27.314ZM17.5999 9.5C20.9089 9.5 23.5999 12.191 23.5999 15.505C23.6209 19.943 19.2119 23.928 17.5999 25.235C15.9889 23.927 11.5789 19.941 11.5999 15.5C11.5999 12.191 14.2909 9.5 17.5999 9.5Z" fill="#0065FF"/>
</svg>
