<svg width="25" height="25" viewBox="0 0 25 25" fill="none" xmlns="http://www.w3.org/2000/svg">
<path fill-rule="evenodd" clip-rule="evenodd" d="M12.2679 7.25C12.8202 7.25 13.2679 7.69772 13.2679 8.25V8.33327C13.9571 8.5297 14.5651 8.92925 14.9639 9.49566C15.2819 9.94721 15.1736 10.5711 14.7221 10.889C14.2705 11.207 13.6467 11.0988 13.3287 10.6472C13.1759 10.4302 12.8019 10.1946 12.2679 10.1946C11.4072 10.1946 11.1157 10.7147 11.1157 10.9086C11.1157 11.0446 11.1371 11.1115 11.1484 11.1375C11.156 11.1548 11.1641 11.1684 11.1929 11.1894C11.2794 11.2523 11.5592 11.3778 12.2679 11.3778C13.1155 11.3778 13.9576 11.5026 14.6044 11.9579C15.3279 12.4673 15.6157 13.2446 15.6157 14.0917C15.6157 15.0444 15.18 15.788 14.4721 16.2469C14.1072 16.4835 13.6933 16.6306 13.2679 16.7141V16.75C13.2679 17.3023 12.8202 17.75 12.2679 17.75C11.7156 17.75 11.2679 17.3023 11.2679 16.75V16.6846C10.6655 16.5347 10.1184 16.2487 9.69886 15.8434C9.30164 15.4597 9.29069 14.8266 9.6744 14.4294C10.0581 14.0322 10.6912 14.0212 11.0884 14.405C11.3023 14.6116 11.7194 14.8057 12.2679 14.8057C12.8151 14.8057 13.1841 14.6984 13.3841 14.5688C13.5259 14.4768 13.6157 14.3634 13.6157 14.0917C13.6157 13.7147 13.5122 13.6349 13.4531 13.5934C13.3174 13.4978 12.9855 13.3778 12.2679 13.3778C11.4113 13.3778 10.615 13.242 10.0168 12.807C9.34782 12.3206 9.11572 11.6077 9.11572 10.9086C9.11572 9.58338 10.1106 8.67449 11.2679 8.33859V8.25C11.2679 7.69771 11.7156 7.25 12.2679 7.25Z" fill="#0065FF"/>
<path opacity="0.4" fill-rule="evenodd" clip-rule="evenodd" d="M4.10727 8.14535C6.10057 4.76136 10.2853 2.94061 14.4003 4.0099C19.2863 5.27953 22.139 10.1155 20.8515 14.775C19.784 18.6385 16.192 21.2341 12.202 21.2956C11.6623 21.3039 11.2316 21.7481 11.2399 22.2878C11.2482 22.8274 11.6924 23.2582 12.2321 23.2499C17.0285 23.176 21.421 20.0532 22.7355 15.2956C24.328 9.53181 20.7806 3.64835 14.8919 2.11816C9.36981 0.683264 3.67483 3.56182 1.68218 8.68008C1.56882 8.97126 1.60153 9.2991 1.7702 9.56215C1.93887 9.82519 2.22315 9.99172 2.53508 10.0102L5.05598 10.1596C5.59477 10.1915 6.05743 9.78057 6.08935 9.24178C6.12127 8.70298 5.71037 8.24033 5.17157 8.20841L4.10727 8.14535Z" fill="#0065FF"/>
<path fill-rule="evenodd" clip-rule="evenodd" d="M2.593 10.5469C3.13274 10.5469 3.57029 10.9844 3.57029 11.5242C3.57029 11.5948 3.57098 11.6653 3.57237 11.7357C3.58301 12.2753 3.15417 12.7214 2.61454 12.732C2.07491 12.7427 1.62882 12.3138 1.61819 11.7742C1.61655 11.691 1.61572 11.6077 1.61572 11.5242C1.61572 10.9844 2.05327 10.5469 2.593 10.5469ZM2.72636 13.5386C3.24813 13.4005 3.78307 13.7115 3.9212 14.2332C3.95721 14.3693 3.99586 14.5042 4.03706 14.6378C4.19611 15.1536 3.90692 15.7006 3.39114 15.8597C2.87537 16.0187 2.32832 15.7295 2.16928 15.2137C2.12035 15.055 2.07447 14.8949 2.03172 14.7334C1.8936 14.2117 2.2046 13.6767 2.72636 13.5386ZM3.72313 16.6036C4.18476 16.3239 4.7857 16.4714 5.06537 16.933C5.13801 17.053 5.21296 17.171 5.29013 17.2871C5.58887 17.7367 5.46664 18.3432 5.01711 18.642C4.56759 18.9407 3.961 18.8185 3.66227 18.369C3.56997 18.2301 3.48041 18.089 3.39366 17.9458C3.11399 17.4842 3.2615 16.8832 3.72313 16.6036ZM5.54989 19.2599C5.90718 18.8553 6.52477 18.817 6.92932 19.1743C7.03344 19.2663 7.13938 19.3556 7.24706 19.4423C7.66746 19.7808 7.73387 20.396 7.39538 20.8164C7.05689 21.2368 6.44168 21.3032 6.02128 20.9647C5.89034 20.8593 5.76171 20.7508 5.63547 20.6393C5.23092 20.282 5.1926 19.6644 5.54989 19.2599ZM8.09639 21.2376C8.30101 20.7381 8.87177 20.4991 9.37122 20.7037C9.49792 20.7556 9.62589 20.8043 9.75505 20.8497C10.2642 21.0288 10.5319 21.5867 10.3528 22.0959C10.1738 22.6051 9.61586 22.8727 9.10668 22.6936C8.94615 22.6372 8.7873 22.5767 8.63023 22.5124C8.13078 22.3078 7.89178 21.737 8.09639 21.2376ZM11.1581 22.2458C11.1722 21.7062 11.621 21.2802 12.1605 21.2943C12.2287 21.2961 12.2972 21.297 12.3658 21.297C12.9056 21.297 13.3431 21.7345 13.3431 22.2742C13.3431 22.814 12.9056 23.2515 12.3658 23.2515C12.2802 23.2515 12.1948 23.2504 12.1096 23.2482C11.57 23.2341 11.144 22.7853 11.1581 22.2458Z" fill="#0065FF"/>
</svg>
