<svg width="64" height="64" viewBox="0 0 64 64" fill="none" xmlns="http://www.w3.org/2000/svg">
<rect width="64" height="64" rx="32" fill="#D9E8FF"/>
<g clip-path="url(#clip0_49_667)">
<path d="M45.9635 34.0036V26.9606C45.9635 25.961 46.7814 25.1482 47.7866 25.1482C48.0246 25.1481 48.2603 25.1949 48.4801 25.286C48.7 25.3771 48.8998 25.5106 49.0681 25.6789C49.2364 25.8472 49.3698 26.047 49.4608 26.267C49.5518 26.4869 49.5985 26.7226 49.5984 26.9606V36.6046C49.5978 37.9348 49.1225 39.2212 48.2579 40.2322L42.2443 46.6188C41.6475 47.1807 41.5012 47.678 41.5012 48.4318V49.5944H34.9554L34.9481 46.8281C34.9481 45.7745 34.862 44.3666 36.1805 42.9851L43.8114 35.3227C44.0774 35.057 44.4363 34.9053 44.8122 34.8995C45.1881 34.8937 45.5515 35.0344 45.8256 35.2917C46.0996 35.549 46.2628 35.9029 46.2807 36.2784C46.2986 36.6539 46.1697 37.0216 45.9213 37.3038L42.2409 41.2464C42.0024 41.5259 41.5985 42.053 41.3983 42.6987C41.2903 43.034 41.2593 43.3608 41.2531 43.736H42.4378C42.4423 43.4688 42.4625 43.2539 42.5261 43.0548C42.642 42.6824 42.8726 42.3472 43.0464 42.1323L46.7825 38.0317C47.2522 37.5581 47.5098 36.9449 47.5098 36.3003C47.5098 35.3323 46.9276 34.4418 45.9646 34.0031L45.9635 34.0036ZM18.387 34.0036V26.9606C18.387 25.961 17.5691 25.1482 16.5639 25.1482C16.3259 25.1481 16.0902 25.1949 15.8703 25.286C15.6504 25.3771 15.4506 25.5106 15.2824 25.6789C15.1141 25.8472 14.9807 26.047 14.8897 26.267C14.7987 26.4869 14.7519 26.7226 14.7521 26.9606V36.6046C14.7521 37.9383 15.2319 39.2264 16.0931 40.2322L22.1073 46.6188C22.7036 47.1807 22.8504 47.678 22.8504 48.4318V49.5944H29.3962L29.4035 46.8281C29.4035 45.7745 29.4896 44.3666 28.1711 42.9851L20.5402 35.3227C20.2742 35.057 19.9153 34.9053 19.5394 34.8995C19.1635 34.8937 18.8001 35.0344 18.526 35.2917C18.252 35.549 18.0887 35.9029 18.0709 36.2784C18.053 36.6539 18.1819 37.0216 18.4303 37.3038L22.1113 41.2464C22.3498 41.5259 22.7536 42.053 22.9539 42.6987C23.0625 43.034 23.0928 43.3608 23.099 43.736H21.9144C21.9099 43.4688 21.8902 43.2539 21.8255 43.0548C21.7102 42.6824 21.479 42.3472 21.3052 42.1323L17.5691 38.0322C17.0994 37.5586 16.8418 36.9449 16.8418 36.3009C16.8418 35.3322 17.424 34.4424 18.387 34.0036ZM32.864 17.4442C33.2762 17.4442 33.6715 17.2804 33.963 16.989C34.2545 16.6975 34.4182 16.3022 34.4182 15.89C34.4182 15.4778 34.2545 15.0825 33.963 14.791C33.6715 14.4996 33.2762 14.3358 32.864 14.3358C32.4518 14.3358 32.0565 14.4996 31.765 14.791C31.4736 15.0825 31.3098 15.4778 31.3098 15.89C31.3098 16.3022 31.4736 16.6975 31.765 16.989C32.0565 17.2804 32.4518 17.4442 32.864 17.4442ZM24.4338 17.4526C24.2276 17.4535 24.0232 17.4137 23.8323 17.3356C23.6415 17.2574 23.4679 17.1424 23.3215 16.9971C23.1752 16.8519 23.0588 16.6792 22.9793 16.4889C22.8997 16.2986 22.8584 16.0945 22.8577 15.8883C22.8584 15.6821 22.8998 15.4781 22.9794 15.2879C23.059 15.0977 23.1754 14.9251 23.3217 14.7798C23.4681 14.6346 23.6417 14.5197 23.8325 14.4415C24.0233 14.3634 24.2276 14.3237 24.4338 14.3246C25.3046 14.3246 26.0122 15.0243 26.0122 15.8883C26.0122 16.754 25.3046 17.4526 24.4338 17.4526ZM40.5843 23.4511C40.7275 23.451 40.8692 23.4228 41.0015 23.3679C41.1337 23.3131 41.2538 23.2327 41.355 23.1314C41.4562 23.0302 41.5364 22.9099 41.5911 22.7777C41.6458 22.6454 41.674 22.5036 41.6739 22.3604C41.6738 22.2173 41.6455 22.0755 41.5907 21.9433C41.5358 21.8111 41.4555 21.6909 41.3542 21.5898C41.2529 21.4886 41.1327 21.4084 41.0004 21.3536C40.8681 21.2989 40.7264 21.2708 40.5832 21.2709C40.2941 21.271 40.0169 21.386 39.8125 21.5906C39.6082 21.7951 39.4935 22.0724 39.4936 22.3616C39.4938 22.6507 39.6088 22.9279 39.8133 23.1322C40.0179 23.3366 40.2952 23.4513 40.5843 23.4511Z" fill="#0065FF"/>
<path d="M42.1627 23.9889H39.2225C39.209 23.9889 38.2387 23.9006 38.2387 23.9006L37.0074 19.6087C36.5118 17.8807 35.0628 17.9336 35.0628 17.9336H31.0769C31.0769 17.9336 29.6291 17.8807 29.1335 19.6087L28.5254 21.722L27.9191 19.6087C27.4207 17.8807 25.9756 17.9336 25.9756 17.9336H22.8914C22.8914 17.9336 21.4424 17.8807 20.9469 19.6087L19.7054 23.9338C19.5873 24.3388 19.8089 24.6459 20.1633 24.7483C20.5166 24.8489 20.8783 24.6706 20.9688 24.3483L22.1782 20.1324L22.7671 20.1313L21.002 27.4308H22.5618V32.6159C22.5618 33.0429 22.9061 33.3905 23.3341 33.3905C23.7611 33.3905 24.1104 33.0429 24.1104 32.6159V27.4308H24.7646V32.6159C24.7646 33.0429 25.1094 33.3905 25.5363 33.3905C25.7421 33.3908 25.9396 33.3094 26.0853 33.1641C26.2311 33.0189 26.3133 32.8217 26.3137 32.6159V27.4308H27.8465L26.0999 20.1313L26.6866 20.1324L27.8825 24.3039C27.9028 24.3759 27.9339 24.4402 27.9759 24.4968C28.0929 24.674 28.2971 24.7719 28.5243 24.7646C28.7516 24.7719 28.9546 24.6746 29.0716 24.5002C29.1206 24.4365 29.1553 24.363 29.1734 24.2848L30.3631 20.1318L30.9054 20.1307V32.4652C30.9054 32.9692 31.3177 33.3764 31.8206 33.3764C32.324 33.3764 32.7318 32.9692 32.7318 32.4652V25.4474H33.4057V32.4652C33.4057 32.9692 33.8141 33.3764 34.3158 33.3764C34.8204 33.3764 35.2338 32.9692 35.2338 32.4652V20.1307L35.8233 20.1318L36.9809 24.3478C37.0439 24.5553 37.2172 24.6926 37.4248 24.7454C37.4338 24.7477 37.4383 24.7516 37.4456 24.7539C37.6301 24.7955 38.4806 25.0368 39.1049 25.2151V32.8651C39.1119 33.0305 39.1825 33.1869 39.302 33.3015C39.4215 33.4161 39.5806 33.4801 39.7462 33.4801C39.9118 33.4801 40.0709 33.4161 40.1904 33.3015C40.3099 33.1869 40.3805 33.0305 40.3874 32.8651V29.0435H40.8892V32.8651C40.8892 33.2184 41.1755 33.5047 41.5288 33.5047C41.882 33.5047 42.1723 33.2184 42.1723 32.8651V25.7191H42.6644V28.1401C42.6644 28.4062 42.8799 28.6199 43.1414 28.6199C43.204 28.6198 43.2659 28.6072 43.3236 28.583C43.3813 28.5587 43.4336 28.5232 43.4774 28.4786C43.5213 28.4339 43.5558 28.381 43.5791 28.3229C43.6023 28.2648 43.6138 28.2027 43.6128 28.1401V25.3861C43.6139 24.6149 42.935 23.9889 42.1638 23.9889H42.1627Z" fill="#0065FF"/>
</g>
<defs>
<clipPath id="clip0_49_667">
<rect width="36" height="36" fill="white" transform="translate(14 14)"/>
</clipPath>
</defs>
</svg>
