<svg width="25" height="25" viewBox="0 0 25 25" fill="none" xmlns="http://www.w3.org/2000/svg">
<path opacity="0.4" d="M6.95193 1.75C7.8504 1.74997 8.59961 1.74995 9.19438 1.82991C9.82218 1.91432 10.389 2.09999 10.8445 2.55546C11.2999 3.01093 11.4856 3.57773 11.57 4.20552C11.65 4.8003 11.6499 5.54951 11.6499 6.44798V8.552C11.6499 9.45047 11.65 10.1997 11.57 10.7945C11.4856 11.4223 11.2999 11.9891 10.8445 12.4445C10.389 12.9 9.82218 13.0857 9.19438 13.1701C8.59961 13.2501 7.8504 13.25 6.95193 13.25H6.84791C5.94944 13.25 5.2002 13.2501 4.60542 13.1701C3.97763 13.0857 3.41083 12.9 2.95536 12.4445C2.49989 11.9891 2.31422 11.4223 2.22981 10.7945C2.14985 10.1997 2.14987 9.4505 2.1499 8.55203V6.448C2.14987 5.54954 2.14985 4.8003 2.22981 4.20552C2.31422 3.57773 2.49989 3.01093 2.95536 2.55546C3.41083 2.09999 3.97763 1.91432 4.60542 1.82991C5.2002 1.74995 5.94941 1.74997 6.84787 1.75H6.95193Z" fill="#8E8E8E"/>
<path d="M7.92516 15.75C8.36962 15.75 8.74065 15.75 9.04527 15.7708C9.36237 15.7924 9.66189 15.839 9.95228 15.9593C10.6261 16.2384 11.1615 16.7738 11.4406 17.4476C11.5609 17.738 11.6075 18.0375 11.6291 18.3546C11.6499 18.6592 11.6499 19.0303 11.6499 19.4747V19.5253C11.6499 19.9697 11.6499 20.3408 11.6291 20.6454C11.6075 20.9625 11.5609 21.262 11.4406 21.5524C11.1615 22.2262 10.6261 22.7616 9.95228 23.0407C9.66189 23.161 9.36237 23.2076 9.04527 23.2292C8.74065 23.25 8.36962 23.25 7.92516 23.25H5.87464C5.43018 23.25 5.05915 23.25 4.75454 23.2292C4.43744 23.2076 4.13791 23.161 3.84752 23.0407C3.17369 22.7616 2.63834 22.2262 2.35923 21.5524C2.23895 21.262 2.19231 20.9625 2.17067 20.6454C2.14989 20.3408 2.14989 19.9697 2.1499 19.5253V19.4747C2.14989 19.0303 2.14989 18.6592 2.17067 18.3546C2.19231 18.0375 2.23895 17.738 2.35923 17.4476C2.63834 16.7738 3.17369 16.2384 3.84752 15.9593C4.13791 15.839 4.43744 15.7924 4.75454 15.7708C5.05915 15.75 5.43018 15.75 5.87464 15.75H7.92516Z" fill="#8E8E8E"/>
<path opacity="0.4" d="M18.9519 11.75C19.8504 11.75 20.5996 11.7499 21.1944 11.8299C21.8222 11.9143 22.389 12.1 22.8444 12.5555C23.2999 13.0109 23.4856 13.5777 23.57 14.2055C23.65 14.8003 23.6499 15.5495 23.6499 16.448V18.552C23.6499 19.4505 23.65 20.1997 23.57 20.7945C23.4856 21.4223 23.2999 21.9891 22.8444 22.4445C22.389 22.9 21.8222 23.0857 21.1944 23.1701C20.5996 23.2501 19.8504 23.25 18.9519 23.25H18.8479C17.9494 23.25 17.2002 23.2501 16.6054 23.1701C15.9776 23.0857 15.4108 22.9 14.9554 22.4445C14.4999 21.9891 14.3142 21.4223 14.2298 20.7945C14.1498 20.1997 14.1499 19.4505 14.1499 18.552V16.448C14.1499 15.5495 14.1498 14.8003 14.2298 14.2055C14.3142 13.5777 14.4999 13.0109 14.9554 12.5555C15.4108 12.1 15.9776 11.9143 16.6054 11.8299C17.2002 11.7499 17.9494 11.75 18.8479 11.75H18.9519Z" fill="#8E8E8E"/>
<path d="M19.9252 1.75C20.3696 1.74999 20.7407 1.74999 21.0453 1.77077C21.3624 1.79241 21.6619 1.83905 21.9523 1.95933C22.6261 2.23844 23.1615 2.77379 23.4406 3.44762C23.5609 3.73801 23.6075 4.03754 23.6291 4.35464C23.6499 4.65925 23.6499 5.03028 23.6499 5.47474V5.52526C23.6499 5.96972 23.6499 6.34075 23.6291 6.64537C23.6075 6.96247 23.5609 7.26199 23.4406 7.55238C23.1615 8.22621 22.6261 8.76156 21.9523 9.04067C21.6619 9.16095 21.3624 9.2076 21.0453 9.22923C20.7407 9.25001 20.3696 9.25001 19.9252 9.25H17.8746C17.4302 9.25001 17.0591 9.25001 16.7545 9.22923C16.4374 9.2076 16.1379 9.16095 15.8475 9.04067C15.1737 8.76156 14.6383 8.22621 14.3592 7.55238C14.2389 7.26199 14.1923 6.96247 14.1707 6.64537C14.1499 6.34075 14.1499 5.96972 14.1499 5.52526V5.47475C14.1499 5.03029 14.1499 4.65925 14.1707 4.35464C14.1923 4.03754 14.2389 3.73801 14.3592 3.44762C14.6383 2.77379 15.1737 2.23844 15.8475 1.95933C16.1379 1.83905 16.4374 1.79241 16.7545 1.77077C17.0591 1.74999 17.4302 1.74999 17.8746 1.75H19.9252Z" fill="#8E8E8E"/>
</svg>
