<svg width="66" height="64" viewBox="0 0 66 64" fill="none" xmlns="http://www.w3.org/2000/svg">
<rect width="66" height="64" rx="32" fill="#D9E8FF"/>
<path d="M31.05 33.0875L29.775 31.175C29.65 30.975 29.475 30.8125 29.25 30.6875C29.025 30.5625 28.7875 30.5 28.5375 30.5H18.7125C18.4375 29.85 18.25 29.225 18.15 28.625C18.05 28.025 18 27.4 18 26.75C18 24.4 18.7875 22.4375 20.3625 20.8625C21.9375 19.2875 23.9 18.5 26.25 18.5C27.55 18.5 28.7875 18.775 29.9625 19.325C31.1375 19.875 32.15 20.65 33 21.65C33.85 20.65 34.8625 19.875 36.0375 19.325C37.2125 18.775 38.45 18.5 39.75 18.5C42.1 18.5 44.0625 19.2875 45.6375 20.8625C47.2125 22.4375 48 24.4 48 26.75C48 27.4 47.95 28.025 47.85 28.625C47.75 29.225 47.5625 29.85 47.2875 30.5H38.3625L35.775 26.675C35.625 26.45 35.4315 26.2815 35.1945 26.1695C34.9575 26.0575 34.701 26.001 34.425 26C34.1 26 33.819 26.094 33.582 26.282C33.345 26.47 33.176 26.7135 33.075 27.0125L31.05 33.0875ZM33 46.025L30.825 44.075C28.2 41.725 26.05 39.7125 24.375 38.0375C22.7 36.3625 21.3875 34.85 20.4375 33.5H27.6375L30.225 37.325C30.375 37.55 30.569 37.719 30.807 37.832C31.045 37.945 31.301 38.001 31.575 38C31.9 38 32.1815 37.9065 32.4195 37.7195C32.6575 37.5325 32.826 37.2885 32.925 36.9875L34.95 30.875L36.2625 32.825C36.3875 33.025 36.5625 33.1875 36.7875 33.3125C37.0125 33.4375 37.25 33.5 37.5 33.5H45.5625C44.6125 34.85 43.3 36.3625 41.625 38.0375C39.95 39.7125 37.8 41.725 35.175 44.075L33 46.025Z" fill="#0065FF"/>
</svg>
