<svg width="36" height="36" viewBox="0 0 36 36" fill="none" xmlns="http://www.w3.org/2000/svg">
<rect width="36" height="36" rx="18" fill="#D9E8FF"/>
<path d="M17.275 17.5C17.275 17.7984 17.3936 18.0845 17.6045 18.2955C17.8155 18.5065 18.1017 18.625 18.4 18.625C18.6984 18.625 18.9846 18.5065 19.1955 18.2955C19.4065 18.0845 19.525 17.7984 19.525 17.5C19.525 17.2016 19.4065 16.9155 19.1955 16.7045C18.9846 16.4935 18.6984 16.375 18.4 16.375C18.1017 16.375 17.8155 16.4935 17.6045 16.7045C17.3936 16.9155 17.275 17.2016 17.275 17.5ZM21.9625 17.5C21.9625 17.7984 22.0811 18.0845 22.292 18.2955C22.503 18.5065 22.7892 18.625 23.0875 18.625C23.3859 18.625 23.6721 18.5065 23.883 18.2955C24.094 18.0845 24.2125 17.7984 24.2125 17.5C24.2125 17.2016 24.094 16.9155 23.883 16.7045C23.6721 16.4935 23.3859 16.375 23.0875 16.375C22.7892 16.375 22.503 16.4935 22.292 16.7045C22.0811 16.9155 21.9625 17.2016 21.9625 17.5ZM12.5875 17.5C12.5875 17.7984 12.7061 18.0845 12.917 18.2955C13.128 18.5065 13.4142 18.625 13.7125 18.625C14.0109 18.625 14.2971 18.5065 14.508 18.2955C14.719 18.0845 14.8375 17.7984 14.8375 17.5C14.8375 17.2016 14.719 16.9155 14.508 16.7045C14.2971 16.4935 14.0109 16.375 13.7125 16.375C13.4142 16.375 13.128 16.4935 12.917 16.7045C12.7061 16.9155 12.5875 17.2016 12.5875 17.5ZM28.0844 13.4312C27.5547 12.1727 26.7953 11.043 25.8274 10.0727C24.8662 9.10798 23.7251 8.34117 22.4688 7.81563C21.1797 7.27422 19.811 7 18.4 7H18.3532C16.9328 7.00703 15.5571 7.28828 14.2633 7.84141C13.0178 8.37234 11.8874 9.14052 10.9352 10.1031C9.9766 11.0711 9.22425 12.1961 8.70394 13.45C8.16488 14.7484 7.893 16.1289 7.90004 17.5492C7.90799 19.1769 8.29306 20.7806 9.02504 22.2344V25.7969C9.02504 26.0828 9.13862 26.357 9.34081 26.5592C9.543 26.7614 9.81722 26.875 10.1032 26.875H13.668C15.1218 27.607 16.7255 27.992 18.3532 28H18.4024C19.8063 28 21.168 27.7281 22.45 27.1961C23.7 26.6768 24.8368 25.919 25.7969 24.9648C26.7649 24.0063 27.5266 22.8859 28.0586 21.6367C28.6118 20.343 28.893 18.9672 28.9 17.5469C28.9071 16.1195 28.6305 14.7344 28.0844 13.4312ZM24.543 23.6969C22.9 25.3234 20.7203 26.2188 18.4 26.2188H18.3602C16.9469 26.2117 15.543 25.8602 14.3032 25.1992L14.1063 25.0938H10.8063V21.7938L10.7008 21.5969C10.0399 20.357 9.68832 18.9531 9.68129 17.5398C9.67191 15.2031 10.5649 13.0094 12.2032 11.357C13.8391 9.70469 16.0258 8.79062 18.3625 8.78125H18.4024C19.5743 8.78125 20.711 9.00859 21.7821 9.45859C22.8274 9.89687 23.7649 10.5273 24.5711 11.3336C25.375 12.1375 26.0078 13.0773 26.4461 14.1227C26.9008 15.2055 27.1282 16.3539 27.1235 17.5398C27.1094 19.8742 26.193 22.0609 24.543 23.6969Z" fill="#0065FF"/>
</svg>
