<svg width="50" height="50" viewBox="0 0 50 50" fill="none" xmlns="http://www.w3.org/2000/svg">
<rect width="50" height="50" rx="25" fill="#E6F0FF"/>
<path fill-rule="evenodd" clip-rule="evenodd" d="M26.0004 16C26.0004 15.4477 25.5526 15 25.0004 15C24.4481 15 24.0004 15.4477 24.0004 16V16.5709C20.6082 17.0559 18.0004 19.9722 18.0004 23.4989L18.0004 27.4993C18.0003 27.4993 18.0004 27.4991 18.0004 27.4993C18.0003 27.5012 17.9996 27.5146 17.9952 27.5409C17.99 27.5724 17.9808 27.6152 17.9655 27.6703C17.9346 27.782 17.8854 27.9211 17.8166 28.0855C17.6788 28.4151 17.4844 28.7947 17.2694 29.1776C16.8653 29.8975 16.6616 30.7554 16.8145 31.5712C16.9758 32.4316 17.5296 33.1819 18.4754 33.542C19.3203 33.8637 20.445 34.1579 21.9302 34.333C21.9656 34.3637 22.0073 34.3987 22.0553 34.4371C22.2056 34.5574 22.4204 34.7132 22.6917 34.8682C23.2303 35.176 24.0266 35.5 25.0004 35.5C25.9741 35.5 26.7704 35.176 27.309 34.8682C27.5804 34.7132 27.7951 34.5574 27.9454 34.4371C27.9934 34.3987 28.0352 34.3637 28.0705 34.333C29.5557 34.1579 30.6804 33.8637 31.5253 33.542C32.4711 33.1819 33.0249 32.4316 33.1862 31.5712C33.3391 30.7554 33.1354 29.8975 32.7313 29.1776C32.5163 28.7947 32.3219 28.4151 32.1841 28.0855C32.1153 27.9211 32.0661 27.782 32.0352 27.6703C32.0199 27.6152 32.0107 27.5724 32.0055 27.5409C32.0011 27.5146 32.0005 27.5015 32.0004 27.4996C32.0004 27.4994 32.0004 27.4996 32.0004 27.4996L32.0004 27.4911V23.4994C32.0004 19.9728 29.3925 17.056 26.0004 16.5709V16ZM20.0004 23.4989C20.0004 20.7377 22.2387 18.5 25.0004 18.5C27.7619 18.5 30.0004 20.7381 30.0004 23.4994V27.5C30.0004 27.9629 30.1738 28.4623 30.3389 28.8571C30.5183 29.2861 30.7534 29.74 30.9873 30.1566C31.2146 30.5616 31.2689 30.9444 31.2204 31.2027C31.1803 31.4166 31.0735 31.574 30.8136 31.6729C29.7387 32.0822 27.9243 32.5 25.0004 32.5C22.0764 32.5 20.262 32.0822 19.1871 31.6729C18.9272 31.574 18.8204 31.4166 18.7803 31.2027C18.7318 30.9444 18.7861 30.5616 19.0134 30.1566C19.2473 29.74 19.4824 29.2861 19.6618 28.8571C19.8269 28.4623 20.0004 27.9629 20.0004 27.5V23.4989Z" fill="black"/>
</svg>
