<svg width="64" height="64" viewBox="0 0 64 64" fill="none" xmlns="http://www.w3.org/2000/svg">
<rect width="64" height="64" rx="32" fill="#D9E8FF"/>
<path d="M41.75 20C42.7446 20 43.6984 20.3951 44.4016 21.0983C45.1049 21.8016 45.5 22.7554 45.5 23.75C45.5 24.7446 45.1049 25.6984 44.4016 26.4017C43.6984 27.1049 42.7446 27.5 41.75 27.5C40.7554 27.5 39.8016 27.1049 39.0984 26.4017C38.3951 25.6984 38 24.7446 38 23.75C38 22.7554 38.3951 21.8016 39.0984 21.0983C39.8016 20.3951 40.7554 20 41.75 20ZM20.75 44C20.1533 44 19.581 43.7629 19.159 43.341C18.7371 42.919 18.5 42.3467 18.5 41.75C18.5 41.1533 18.7371 40.581 19.159 40.159C19.581 39.7371 20.1533 39.5 20.75 39.5H31.25C31.8467 39.5 32.419 39.7371 32.841 40.159C33.2629 40.581 33.5 41.1533 33.5 41.75C33.5 42.3467 33.2629 42.919 32.841 43.341C32.419 43.7629 31.8467 44 31.25 44H20.75ZM38.135 42.5L36.035 36.5H30.5L24.125 30.125C24.125 30.125 27.5 26.375 32.75 26.375C37.25 26.375 37.775 27.875 38.09 28.805L42.38 41C42.8 42.17 42.17 43.46 41 43.88C39.83 44.285 38.54 43.67 38.135 42.5Z" fill="#0065FF"/>
</svg>
