<svg width="55" height="52" viewBox="0 0 55 52" fill="none" xmlns="http://www.w3.org/2000/svg">
<rect width="55" height="52" rx="6" fill="#0065FF"/>
<path d="M25 15.5C24.069 15.4995 23.1608 15.7878 22.4005 16.3251C21.6402 16.8624 21.0653 17.6223 20.755 18.5H16V21.5H20.755C21.0649 22.3783 21.6396 23.1389 22.3999 23.6768C23.1602 24.2148 24.0686 24.5037 25 24.5037C25.9314 24.5037 26.8398 24.2148 27.6001 23.6768C28.3604 23.1389 28.9351 22.3783 29.245 21.5H40V18.5H29.245C28.9347 17.6223 28.3598 16.8624 27.5995 16.3251C26.8392 15.7878 25.931 15.4995 25 15.5ZM23.5 20C23.5 19.6022 23.658 19.2206 23.9393 18.9393C24.2206 18.658 24.6022 18.5 25 18.5C25.3978 18.5 25.7794 18.658 26.0607 18.9393C26.342 19.2206 26.5 19.6022 26.5 20C26.5 20.3978 26.342 20.7794 26.0607 21.0607C25.7794 21.342 25.3978 21.5 25 21.5C24.6022 21.5 24.2206 21.342 23.9393 21.0607C23.658 20.7794 23.5 20.3978 23.5 20ZM31 27.5C30.069 27.4995 29.1608 27.7878 28.4005 28.3251C27.6402 28.8624 27.0653 29.6223 26.755 30.5H16V33.5H26.755C27.0649 34.3783 27.6396 35.1389 28.3999 35.6768C29.1602 36.2148 30.0686 36.5037 31 36.5037C31.9314 36.5037 32.8398 36.2148 33.6001 35.6768C34.3604 35.1389 34.9351 34.3783 35.245 33.5H40V30.5H35.245C34.9347 29.6223 34.3598 28.8624 33.5995 28.3251C32.8392 27.7878 31.931 27.4995 31 27.5ZM29.5 32C29.5 31.6022 29.658 31.2206 29.9393 30.9393C30.2206 30.658 30.6022 30.5 31 30.5C31.3978 30.5 31.7794 30.658 32.0607 30.9393C32.342 31.2206 32.5 31.6022 32.5 32C32.5 32.3978 32.342 32.7794 32.0607 33.0607C31.7794 33.342 31.3978 33.5 31 33.5C30.6022 33.5 30.2206 33.342 29.9393 33.0607C29.658 32.7794 29.5 32.3978 29.5 32Z" fill="white"/>
</svg>
