<svg width="36" height="36" viewBox="0 0 36 36" fill="none" xmlns="http://www.w3.org/2000/svg">
<rect width="36" height="36" rx="18" fill="#D9E8FF"/>
<path d="M27.907 16.793L19.907 8.793C19.7671 8.65319 19.5889 8.55798 19.395 8.51942C19.201 8.48085 19 8.50065 18.8173 8.57632C18.6346 8.65199 18.4784 8.78013 18.3685 8.94454C18.2587 9.10895 18.2 9.30225 18.2 9.5V13.045C15.4682 13.2978 12.9292 14.5609 11.0796 16.587C9.2301 18.6132 8.20322 21.2566 8.19995 24V25.5C8.20011 25.7076 8.26486 25.91 8.38523 26.0791C8.50559 26.2482 8.6756 26.3757 8.87168 26.4438C9.06775 26.512 9.28018 26.5174 9.47948 26.4594C9.67879 26.4014 9.85509 26.2827 9.98395 26.12C10.9638 24.9551 12.1659 23.9971 13.5201 23.3019C14.8742 22.6067 16.3533 22.1883 17.871 22.071C17.921 22.065 18.046 22.055 18.2 22.045V25.5C18.2 25.6978 18.2587 25.891 18.3685 26.0555C18.4784 26.2199 18.6346 26.348 18.8173 26.4237C19 26.4993 19.201 26.5192 19.395 26.4806C19.5889 26.442 19.7671 26.3468 19.907 26.207L27.907 18.207C28.0944 18.0195 28.1997 17.7652 28.1997 17.5C28.1997 17.2348 28.0944 16.9805 27.907 16.793ZM20.2 23.086V21C20.2 20.7348 20.0946 20.4804 19.9071 20.2929C19.7195 20.1054 19.4652 20 19.2 20C18.945 20 17.904 20.05 17.638 20.085C14.9427 20.333 12.3772 21.357 10.252 23.033C10.4932 20.8274 11.5395 18.7883 13.1905 17.3062C14.8415 15.824 16.9812 15.0028 19.2 15C19.4652 15 19.7195 14.8946 19.9071 14.7071C20.0946 14.5196 20.2 14.2652 20.2 14V11.914L25.786 17.5L20.2 23.086Z" fill="#0065FF"/>
</svg>
