<svg width="17" height="16" viewBox="0 0 17 16" fill="none" xmlns="http://www.w3.org/2000/svg">
<path d="M8.49998 13.3333C9.91447 13.3333 11.271 12.7714 12.2712 11.7712C13.2714 10.7711 13.8333 9.4145 13.8333 8.00001C13.8333 6.58552 13.2714 5.22897 12.2712 4.22877C11.271 3.22858 9.91447 2.66668 8.49998 2.66668C7.08549 2.66668 5.72894 3.22858 4.72874 4.22877C3.72855 5.22897 3.16665 6.58552 3.16665 8.00001C3.16665 9.4145 3.72855 10.7711 4.72874 11.7712C5.72894 12.7714 7.08549 13.3333 8.49998 13.3333ZM8.49998 1.33334C9.37546 1.33334 10.2424 1.50578 11.0512 1.84081C11.86 2.17584 12.595 2.66691 13.214 3.28596C13.8331 3.90502 14.3241 4.63995 14.6592 5.44879C14.9942 6.25762 15.1666 7.12453 15.1666 8.00001C15.1666 9.76812 14.4643 11.4638 13.214 12.7141C11.9638 13.9643 10.2681 14.6667 8.49998 14.6667C4.81331 14.6667 1.83331 11.6667 1.83331 8.00001C1.83331 6.2319 2.53569 4.53621 3.78593 3.28596C5.03618 2.03572 6.73187 1.33334 8.49998 1.33334ZM8.83331 4.66668V8.16668L11.8333 9.94668L11.3333 10.7667L7.83331 8.66668V4.66668H8.83331Z" fill="white"/>
</svg>
