<svg width="10" height="14" viewBox="0 0 10 14" fill="none" xmlns="http://www.w3.org/2000/svg">
<path d="M7.16667 3.33333C7.5645 3.33333 7.94603 3.1753 8.22733 2.89399C8.50864 2.61269 8.66667 2.23116 8.66667 1.83333C8.66667 1.43551 8.50864 1.05398 8.22733 0.772672C7.94603 0.491367 7.5645 0.333332 7.16667 0.333332C6.76885 0.333332 6.38732 0.491367 6.10601 0.772672C5.82471 1.05398 5.66667 1.43551 5.66667 1.83333C5.66667 2.23116 5.82471 2.61269 6.10601 2.89399C6.38732 3.1753 6.76885 3.33333 7.16667 3.33333ZM4.15334 4.76067C3.73767 4.864 3.45401 5.01933 3.22501 5.212C2.88167 5.50133 2.60434 5.91867 2.22967 6.57467C2.14193 6.72818 1.9968 6.84055 1.8262 6.88706C1.65561 6.93357 1.47352 6.91041 1.32001 6.82267C1.16649 6.73492 1.05412 6.58979 1.00761 6.41919C0.961099 6.2486 0.984264 6.06651 1.07201 5.913C1.44501 5.26067 1.82201 4.65033 2.36634 4.19233C2.93434 3.71367 3.62967 3.443 4.56734 3.33867C4.95934 3.29533 5.39067 3.304 5.79501 3.48433C6.21934 3.674 6.52934 4.01367 6.74067 4.46767C7.02534 5.07867 7.23701 5.44233 7.40634 5.65333C7.48801 5.75433 7.54501 5.80133 7.57734 5.82233C7.60301 5.839 7.61401 5.84033 7.61801 5.841C7.64701 5.84433 7.74134 5.841 8.01734 5.71867C8.13767 5.66533 8.26901 5.60133 8.42967 5.523L8.46801 5.50433C8.66451 5.40739 8.86276 5.31404 9.06267 5.22433C9.22407 5.15348 9.40697 5.14943 9.57135 5.21307C9.73573 5.27671 9.86822 5.40286 9.93983 5.56393C10.0114 5.725 10.0163 5.90787 9.95347 6.07255C9.8906 6.23723 9.76507 6.3703 9.60434 6.44267C9.41907 6.52579 9.23538 6.61236 9.05334 6.70233L9.00967 6.72367C8.85601 6.79867 8.70134 6.87433 8.55634 6.93833C8.25634 7.071 7.87301 7.215 7.45734 7.16467C7.01867 7.11133 6.68067 6.86367 6.40234 6.53133L5.49134 8.289L6.75134 9.92833C6.82634 10.0263 6.87267 10.143 6.88567 10.2657L7.16301 12.931C7.17357 13.0188 7.16656 13.1079 7.14237 13.1929C7.11819 13.278 7.07732 13.3574 7.02214 13.4265C6.96696 13.4957 6.89857 13.5531 6.82097 13.5956C6.74337 13.638 6.65809 13.6646 6.57012 13.6737C6.48215 13.6829 6.39323 13.6744 6.30856 13.6489C6.22388 13.6233 6.14513 13.5812 6.0769 13.5249C6.00867 13.4686 5.95232 13.3993 5.91113 13.3211C5.86995 13.2428 5.84475 13.1571 5.83701 13.069L5.57901 10.5913L4.81367 9.59533L4.80701 9.60767L4.77901 9.55033L3.36501 7.71033C3.2955 7.61989 3.25035 7.51313 3.2339 7.40026C3.21744 7.28739 3.23022 7.17219 3.27101 7.06567L4.15334 4.76067Z" fill="#0065FF"/>
<path d="M3.14401 8.669L2.65334 9.989L0.72001 9.83567C0.63211 9.8275 0.543465 9.83688 0.459218 9.86325C0.374971 9.88962 0.296801 9.93246 0.229243 9.98928C0.161685 10.0461 0.106085 10.1158 0.0656694 10.1943C0.0252541 10.2727 0.000828384 10.3585 -0.00619028 10.4465C-0.0132089 10.5345 -0.00268085 10.623 0.0247832 10.7069C0.0522472 10.7908 0.0960999 10.8684 0.153797 10.9352C0.211494 11.002 0.281886 11.0567 0.360888 11.0961C0.439889 11.1355 0.525928 11.1588 0.61401 11.1647L3.05001 11.358C3.19458 11.3695 3.33896 11.3335 3.46126 11.2556C3.58355 11.1776 3.67708 11.0619 3.72768 10.926L4.10268 9.91667L3.14401 8.669Z" fill="#0065FF"/>
</svg>
