<svg width="36" height="36" viewBox="0 0 36 36" fill="none" xmlns="http://www.w3.org/2000/svg">
<rect y="0.545456" width="36" height="34.9091" rx="17.4545" fill="#D9E8FF"/>
<g clip-path="url(#clip0_80_273)">
<path d="M18 6C19.1016 6 20.1641 6.14062 21.1875 6.42188C22.2109 6.70312 23.168 7.10547 24.0586 7.62891C24.9492 8.15234 25.7578 8.77734 26.4844 9.50391C27.2109 10.2305 27.8359 11.043 28.3594 11.9414C28.8828 12.8398 29.2852 13.7969 29.5664 14.8125C29.8477 15.8281 29.9922 16.8906 30 18C30 19.1016 29.8594 20.1641 29.5781 21.1875C29.2969 22.2109 28.8945 23.168 28.3711 24.0586C27.8477 24.9492 27.2227 25.7578 26.4961 26.4844C25.7695 27.2109 24.957 27.8359 24.0586 28.3594C23.1602 28.8828 22.2031 29.2852 21.1875 29.5664C20.1719 29.8477 19.1094 29.9922 18 30C16.8984 30 15.8359 29.8594 14.8125 29.5781C13.7891 29.2969 12.832 28.8945 11.9414 28.3711C11.0508 27.8477 10.2422 27.2227 9.51562 26.4961C8.78906 25.7695 8.16406 24.957 7.64062 24.0586C7.11719 23.1602 6.71484 22.207 6.43359 21.1992C6.15234 20.1914 6.00781 19.125 6 18C6 16.8984 6.14062 15.8359 6.42188 14.8125C6.70312 13.7891 7.10547 12.832 7.62891 11.9414C8.15234 11.0508 8.77734 10.2422 9.50391 9.51562C10.2305 8.78906 11.043 8.16406 11.9414 7.64062C12.8398 7.11719 13.793 6.71484 14.8008 6.43359C15.8086 6.15234 16.875 6.00781 18 6ZM18 28.5C18.9609 28.5 19.8867 28.375 20.7773 28.125C21.668 27.875 22.5039 27.5234 23.2852 27.0703C24.0664 26.6172 24.7773 26.0664 25.418 25.418C26.0586 24.7695 26.6055 24.0625 27.0586 23.2969C27.5117 22.5312 27.8672 21.6953 28.125 20.7891C28.3828 19.8828 28.5078 18.9531 28.5 18C28.5 17.0391 28.375 16.1133 28.125 15.2227C27.875 14.332 27.5234 13.4961 27.0703 12.7148C26.6172 11.9336 26.0664 11.2227 25.418 10.582C24.7695 9.94141 24.0625 9.39453 23.2969 8.94141C22.5312 8.48828 21.6953 8.13281 20.7891 7.875C19.8828 7.61719 18.9531 7.49219 18 7.5C17.0391 7.5 16.1133 7.625 15.2227 7.875C14.332 8.125 13.4961 8.47656 12.7148 8.92969C11.9336 9.38281 11.2227 9.93359 10.582 10.582C9.94141 11.2305 9.39453 11.9375 8.94141 12.7031C8.48828 13.4688 8.13281 14.3047 7.875 15.2109C7.61719 16.1172 7.49219 17.0469 7.5 18C7.5 18.9609 7.625 19.8867 7.875 20.7773C8.125 21.668 8.47656 22.5039 8.92969 23.2852C9.38281 24.0664 9.93359 24.7773 10.582 25.418C11.2305 26.0586 11.9375 26.6055 12.7031 27.0586C13.4688 27.5117 14.3047 27.8672 15.2109 28.125C16.1172 28.3828 17.0469 28.5078 18 28.5ZM24.9961 18.1875L25.5586 16.5H26.4375L25.4414 19.5H24.5625L24 17.8125L23.4375 19.5H22.5586L21.5625 16.5H22.4414L23.0039 18.1875L23.5664 16.5H24.4336L24.9961 18.1875ZM19.5586 16.5H20.4375L19.4414 19.5H18.5625L18 17.8125L17.4375 19.5H16.5586L15.5625 16.5H16.4414L17.0039 18.1875L17.5664 16.5H18.4336L18.9961 18.1875L19.5586 16.5ZM13.5586 16.5H14.4375L13.4414 19.5H12.5625L12 17.8125L11.4375 19.5H10.5586L9.5625 16.5H10.4414L11.0039 18.1875L11.5664 16.5H12.4336L12.9961 18.1875L13.5586 16.5Z" fill="#0065FF"/>
</g>
<defs>
<clipPath id="clip0_80_273">
<rect width="24" height="24" fill="white" transform="translate(6 6)"/>
</clipPath>
</defs>
</svg>
